<?xml version="1.0" encoding="UTF-8"?>
<svg id="Camada_2" data-name="Camada 2" xmlns="http://www.w3.org/2000/svg" viewBox="0 0 471.77 225.98">
  <defs>
    <style>
      .cls-1 {
        fill: #c29863;
      }
    </style>
  </defs>
  <g id="Camada_2-2" data-name="Camada 2">
    <path class="cls-1" d="M114.78,63.12c-3.07-2.02-5.91-4.64-9.25-5.97C71.46,43.63,40.41,24.34,8.53,6.65,5.65,5.06,2.84,3.36,0,1.71L.88,0c1.71,.67,3.53,1.15,5.13,2.03,18.79,10.42,37.39,21.21,56.38,31.25,13.38,7.07,27.23,13.28,41,19.6,6.79,3.11,12.42,6.86,16.8,13.41,2.89,4.32,8.49,7.27,13.43,9.69,19,9.34,35.85,2.19,52.22-7.6,4.41-2.64,8.73-5.59,13.46-7.48,6.01-2.39,12.29-1.66,17.73,1.91,2.68,1.76,4.69,1.53,6.64-.38,6.15-6.01,12.64-4.97,19.81-1.91,10.53,4.5,21.07,9.38,32.07,12.31,13.49,3.6,26.32-1.14,38.64-6.68,.59-.26,1.34-.65,1.56-1.18,4.7-11.18,15.07-10.72,24.89-12.58-2.06-.79-4.05-1.56-7.08-2.72,1.76-1.43,2.82-2.52,4.08-3.29,18.37-11.1,36.74-22.2,55.24-33.09,1.2-.71,4.01-.39,5.02,.56,9.78,9.14,16.4,19.54,13.49,33.95-.6,2.99,.28,6.81,1.76,9.57,3.6,6.74,7.92,13.09,12.01,19.56,.51,.81,1.3,1.57,2.14,2.05,12.49,7.09,30.67-.99,33.97-15.05,.48-2.03,1.04-4.04,1.71-6.6,3.52,5.79-.81,17.1-7.71,21.92-7.33,5.11-15.67,4.66-25.63,3.88,5.3,6.85,9.68,12.75,14.33,18.44,8.12,9.92,16.53,19.61,24.58,29.58,5.24,6.49,4.18,9.82-3.74,12.29-6.04,1.88-12.36,2.9-18.28,5.07-3.39,1.24-6.65,3.57-9.2,6.17-4.17,4.27-7.4,9.45-11.58,13.7-6.12,6.21-13.36,7.29-20.36,2.27-8.5-6.09-16.28-13.18-24.34-19.88-.75-.62-1.44-1.47-1.81-2.36-.47-1.13-.58-2.41-.84-3.63,1.38,0,3.05-.51,4.09,.08,3.6,2.06,7.16,4.28,10.42,6.84,5.63,4.42,11.01,9.15,16.53,13.71,1.21,1,2.58,1.81,4.79,2.01-3.17-8.69-6.49-17.33-9.49-26.08-8.03-23.44-20.79-44.24-35.42-64.03-2.37-3.21-4.83-6.46-6.5-10.04-1.15-2.47-1-5.53-1.44-8.33,2.81-.17,5.93-1.21,8.39-.36,8.49,2.94,16.72,6.6,25.1,9.86,8.34,3.24,16.73,6.33,25.1,9.48,.37-.41,.73-.83,1.1-1.24-.96-1.56-1.78-3.22-2.89-4.66-7.27-9.47-11.43-19.84-9.74-32.03,1.44-10.4-5.81-16.47-11.75-23.11-.56-.62-2.61-.67-3.45-.15-17.29,10.59-34.5,21.31-51.92,32.12,7.75,13.98,23.75,21.41,31.77,35.84,6.46,11.62,13,23.2,19.46,34.82,.64,1.15,1,2.47,1.38,3.75,3.41,11.51-.67,17.37-12.55,18.07-.5,.03-1.02,.17-1.49,.08-23.45-4.49-40.92,8.68-59.01,19.98-1.27,.79-2.74,1.5-3.61,2.64-1.13,1.48-2.46,3.36-2.44,5.06,.08,6.3-1.92,9.53-7.7,12.76-1.85,1.03-3.78,3.31-4.17,5.3-1.3,6.76-5.04,10.92-11.69,11.94-5.1,.79-8.97,3.03-13.09,6.15-4,3.02-9.57,3.97-14.47,5.79-2.13,.79-4.52,1.14-6.41,2.31-7.19,4.46-14.73,6.19-22.89,3.43-3.31-1.12-5.75-.41-8.01,2.14-4.37,4.91-10.1,7.12-16.49,7.05-8.98-.09-13.86-5.5-16.24-14.7-5.61,3.08-11.01,6.35-17.34,2.87-5.89-3.24-7.79-8.77-9.22-15.4-5.38,1.93-11.31,4.12-15.41-.7-3.38-3.98-5.17-9.32-8.06-14.8-.21,.03-1.62,.25-3.03,.49-10.87,1.9-19.55-6.09-17.5-16.94,1.08-5.71-.42-8.83-5.49-10.83-.76-.3-1.47-.81-2.11-1.32-6.8-5.41-13.53-8.93-22.16-2.87-2.71,1.9-7.06,2-10.64,1.91-2.09-.05-5.32-1.71-5.86-3.36-.51-1.55,1.33-4.7,3.02-5.99,4.91-3.76,10.97-4.8,16.61-2.77,5.98,2.16,9.05-.46,12.06-4.69,9.05-12.71,14.31-27.02,17.9-42.03,.93-3.88,1.62-7.83,2.22-11.77,1.13-7.34,.7-7.95-6.51-10.83-2.55,6.21-4.25,12.96-7.83,18.5-7.12,11.03-15.26,21.4-23.01,32.03-3.82,5.25-7.48,10.65-11.58,15.67-11.1,13.59-24.25,24.4-42.01,27.8-18.03,3.46-31.47-9.36-28.82-27.55,.93-6.35,2.75-12.74,5.2-18.68,6.38-15.48,10.83-31.44,9.04-48.14-1.66-15.51-5.18-30.82-7.88-46.21-.33-1.89-.68-3.78-1.02-5.67,.39-.48,.78-.95,1.17-1.43,32.92,15.16,65.85,30.32,98.77,45.49,.21-.31,.41-.62,.62-.93Zm184.77,121.96c-8.14-2.68-15.89-4.22-22.67-7.66-14.46-7.33-25.17-19.52-36.82-30.45-.48-.45-1.05-1.04-1.12-1.62-.22-1.82-.22-3.67-.3-5.51,1.69,.59,3.65,.81,4.99,1.85,1.53,1.18,2.61,3.01,3.68,4.7,4.81,7.61,10.8,13.82,19.13,17.72,5.88,2.75,11.71,5.71,17.18,9.19,6.68,4.25,14.21,4.42,21.57,5.56,.96,.15,2.22-.64,3.13-1.29,3.81-2.73,4.61-8.34,1.47-12.48-1.78-2.35-4.1-4.37-6.45-6.2-13.4-10.44-27.64-19.95-40.13-31.37-12.15-11.11-25.9-19.19-40.11-26.88-5.95-3.22-13.19-.55-15.58,5.68-3.61,9.4-10.45,15.71-19.38,19.87-4.35,2.03-9.01,3.25-13.17-.35-4.39-3.81-3.88-8.83-2.83-13.9,2.28-10.98,4.51-21.97,6.93-33.79-7.45,2.33-14,4.21-18.1,9.89-4.13,5.73-3.81,5.91-10.59,3.14-2.62-1.07-5.33-1.9-7.99-2.86-3.47-1.26-6.94-2.53-10.67-3.89-4.1,21.25-10.3,42.53-25.98,60.54,6.24,3.93,11.93,7.6,17.73,11.07,.82,.49,2.41,.42,3.28-.05,3.63-2,6.42-.43,9.11,1.78,3.34,2.76,6.51,5.73,9.96,8.35,4.65,3.54,7.21,3.34,11.47-.3,2.15-1.84,4.29-3.73,6.61-5.33,8.7-6.01,18.49-2.95,22.37,6.86,.34,.87,.79,1.7,1.33,2.83,1.26-.83,2.25-1.39,3.14-2.07,10.07-7.83,16.52-6.27,22.22,5,.97,1.93,3.22,3.73,5.28,4.48,5.08,1.86,8.8,4.59,9.7,10.27,.14,.88,.68,1.86,1.34,2.45,2.58,2.31,5.5,4.28,7.91,6.74,7.92,8.09,17.92,10.63,28.68,10.67,5.5,.02,9.93-2.72,13.38-7.78-17.64-3.7-30.86-14.55-45.39-22.83-.57-.33-1.35-.69-1.54-1.22-.57-1.59-1.53-3.47-1.1-4.84,.29-.9,2.93-1.85,4.15-1.5,2.47,.72,5.03,1.91,6.94,3.61,10.99,9.76,22.73,18.01,37.58,20.74,.96,.18,1.9,.63,2.79,1.06,9.25,4.42,17.25-.82,16.89-9.89ZM18.38,23.56c2.11,10.91,4.24,20.97,5.96,31.1,3.64,21.43,2.55,42.42-6.11,62.72-2.41,5.65-4.55,11.52-5.85,17.5-4.53,20.79,9.22,33.45,29.57,27.36,14.57-4.36,25.88-13.58,35.18-25.25,8.2-10.28,16.37-20.64,23.74-31.52,5.93-8.75,11.3-18.02,15.68-27.62,2.91-6.38,1.4-8.32-4.93-11.29-26.39-12.38-52.82-24.68-79.26-36.96-4.45-2.07-9.01-3.9-14-6.04ZM290.43,91.3c.88,.02,1.77,.04,2.65,.05,.57,3.45,1.44,6.88,1.65,10.35,.55,9.13,.28,18.33,1.3,27.4,1.45,13,9.41,18.07,21.39,13.17,11.27-4.61,22.71-6.09,34.67-5.58,5.29,.23,5.97-1,3.8-5.74-.48-1.06-1.09-2.06-1.7-3.05-11.04-18.04-22.21-35.99-33.04-54.16-2.64-4.44-5.02-5.5-9.88-3.23-17.94,8.36-35.97,8.56-53.93-.34-5.81-2.88-11.82-5.38-17.8-7.9-4.05-1.71-7.81-1.39-11.89,.87-5.3,2.93-10.99,5.34-16.76,7.21-7.73,2.51-15.81,3.95-23.49,6.58-2.59,.89-5.65,3.67-6.35,6.19-1.67,6-2.06,12.35-3,18.7,7.63-.78,9.8,.38,10.66,5.35,1.41,8.13-.95,12.2-7.89,13.78-1.42,.32-2.78,.91-4.16,1.38l.27,1.76c2.78,0,5.82,.73,8.3-.13,8.15-2.83,14.61-8.08,18.19-16.07,.99-2.22,.52-5.23,.26-7.83-.24-2.45-1.23-4.83-1.57-7.28-.11-.75,.81-2.34,1.26-2.34,.96,0,2.11,.59,2.82,1.31,.65,.65,.69,1.88,1.25,2.68,.95,1.38,2.09,2.63,3.15,3.94,1.4-1.26,3.06-2.33,4.13-3.82,1.84-2.55,3.18-5.45,5-8.01,.51-.72,1.98-.76,3.02-1.11,.31,1.17,1.11,2.49,.82,3.49-.61,2.1-1.79,4.03-3.24,7.08,9.5-6.11,17.31-12.78,26.91-16.04l1.42,2.2c-5.26,8.17-14.24,11.69-22.85,16.42,1.71,.99,3.09,1.83,4.52,2.59,12.52,6.69,24.01,14.63,34.75,24.11,14.02,12.37,29.34,23.25,44.1,34.77,.31-.33,.63-.67,.94-1-1.78-2.09-3.31-4.47-5.39-6.21-3.18-2.67-6.68-4.95-10.12-7.29-7.58-5.17-10.14-12.25-8.84-21.22,1.23-8.55,1.86-17.18,2.92-25.76,.3-2.46,1.15-4.85,1.75-7.27Zm127.39,79.02c2.37-1.6,4.4-2.49,5.76-3.99,3.58-3.93,7.14-7.94,10.19-12.27,3.34-4.76,7.36-7.86,13.21-8.9,5.07-.9,10.02-2.47,14.99-3.87,7.66-2.16,8.13-3.73,3-10.05-12.59-15.51-25.21-31.01-37.89-46.45-1.11-1.35-2.61-2.69-4.2-3.31-16.93-6.51-33.9-12.91-50.9-19.25-2.53-.94-5.22-1.43-7.84-2.13-.41,.49-.83,.97-1.24,1.46,1.92,3.31,3.47,6.92,5.83,9.88,23.13,29.15,38.41,62.2,49.1,98.87Zm-97.42-103.18c6.17,10.03,12.4,19.83,18.31,29.84,7.42,12.58,14.54,25.34,21.91,37.96,.66,1.14,2.09,2.51,3.23,2.57,6.77,.38,13.62,.99,20.34,.39,6.87-.61,9.68-4.32,7.26-10.6-4.15-10.79-9-21.42-14.69-31.48-7.74-13.69-17.71-25.77-30.66-35.04-1.48-1.06-3.88-2.27-5.29-1.78-6.69,2.31-13.18,5.19-20.4,8.13Zm-108.18,111.1c-2.73-4.01-4.49-8.01-7.48-10.61-3.57-3.11-7.7-.99-10.84,1.68-3.51,2.98-6.88,6.22-9.84,9.74-4.04,4.8-7.7,9.92-11.34,15.03-.66,.92-1,3.19-.46,3.67,4.28,3.78,8.62,7.53,13.32,10.74,2.51,1.71,4.85,.3,6.71-2.25,4.09-5.61,8.59-10.92,12.69-16.52,2.45-3.36,4.46-7.04,7.23-11.48Zm-49.8,12.71c.97-.28,3.13-.28,4.37-1.36,5.23-4.54,10.58-9.06,15.09-14.29,2.55-2.95,2.38-7.24-.33-10.68-2.81-3.57-6.97-5.95-10.92-3.83-7.17,3.85-13.84,8.71-20.37,13.62-1.21,.91-1.69,4.55-.88,6.07,2.6,4.94,5.39,10.17,13.04,10.46Zm55.56-9.83c-5.61,7.1-10.7,13.49-15.74,19.93-1.43,1.83-2.78,3.73-4.01,5.69-.49,.78-1.04,2.39-.73,2.66,3.31,2.85,6.49,6.1,10.32,8.05,3.49,1.78,7.21-.13,8.8-3.58,3.1-6.72,6.03-13.6,8.18-20.67,1.95-6.42-1.06-10.45-6.81-12.08Zm134.05-40.09c-.1-.44-.2-.88-.29-1.31-2.78-.14-5.67-.83-8.33-.32-7.8,1.49-15.74,2.76-23.19,5.38-15.53,5.47-24.03,1.09-27.2-15.04-.35-1.79-.47-3.63-.61-5.45-.37-4.66-.71-9.33-1.16-15.48-.74,5.27-.97,9.12-1.86,12.81-2.64,10.92,1.17,18.46,10.65,24.37,4.91,3.06,8.95,7.8,12.66,12.36,2.1,2.58,3.15,2.96,5.88,1.14,6.09-4.05,12.34-7.9,18.73-11.45,4.74-2.64,9.81-4.69,14.73-7.01Zm-96.93,69.87c-4.84-2.27-9.39-4.22-13.78-6.51-4.51-2.36-8.85-5.05-13.8-7.9-1.58,4.06-3.3,7.64-4.35,11.41-.93,3.35,1.92,5.73,5.36,5.36,2.06-.22,4.27,.01,6.28,.56,7.11,1.94,13.78,1.37,20.29-2.93Zm-127.36-49.39c-3.66,8.57-1.59,16.48,4.82,18.53,5.75,1.84,12.53,1.87,14.01-7.72-5.96-3.42-12.2-7-18.84-10.81Zm33.1-77.91c-8.51-.78-17.09-1.57-26.27-2.41,5.99,5.98,14.99,4.33,20.97,9.3,2.22-2.88,3.92-5.1,5.3-6.89Zm15.35,34.17c8.15,.15,11.43-3.55,9.72-9.7-.39-1.38-1.7-3.24-2.86-3.47-1.23-.24-3.66,.88-4.05,1.96-1.29,3.52-1.88,7.28-2.8,11.21Zm35.93-53.26c-8.71-3.28-17.34-.43-25.51,8.52,8.21-2.74,16.42-5.49,25.51-8.52ZM79.75,149.49c5.22,2.48,13.3,.82,18.38-3.76-6.36-3.46-15.66-1.56-18.38,3.76Zm91.42,41.45c-8.44,5.81-15.53,3.75-22.54-4.91,1.31,5.82,2.72,9.82,7.16,11.18,6.44,1.97,10.96-2.05,15.38-6.27Zm28.24,26.57c5.32,6.55,14.44,7.37,19.85,1.4-3.22,.42-6.39,2.15-9.44,1.98-3.44-.2-6.78-2.12-10.4-3.37ZM337.36,57.93c-.28-.85-.56-1.71-.83-2.56-5.24,1.88-10.49,3.76-15.73,5.64,.23,.67,.45,1.35,.68,2.02,5.29-1.7,10.59-3.4,15.88-5.1ZM183.65,211.99c-4.28-3.41-8.17-6.51-12.37-9.85,2.03,7.65,5.99,10.78,12.37,9.85Zm202.91-61.65c-.31,.39-.63,.77-.94,1.16,6.06,4.96,12.13,9.92,18.19,14.89,.32-.4,.64-.79,.96-1.19-6.07-4.95-12.14-9.91-18.21-14.86Zm-141.7,30.15c.25-.38,.49-.77,.74-1.15-3.6-2.54-7.2-5.07-10.79-7.61-.38,.59-.77,1.18-1.15,1.77,3.73,2.33,7.47,4.66,11.2,6.99Z"/>
  </g>
</svg>