<?xml version="1.0" encoding="UTF-8"?>
<svg id="Camada_2" data-name="Camada 2" xmlns="http://www.w3.org/2000/svg" viewBox="0 0 591.17 265.35">
  <defs>
    <style>
      .cls-1 {
        fill: #c29863;
      }
    </style>
  </defs>
  <g id="Camada_2-2" data-name="Camada 2">
    <path class="cls-1" d="M357.55,209.27c-18.81,13.96-39.26,16.77-60.64,13.42-6.46-1.01-12.92-4.29-18.53-7.86-5.83-3.72-8.55-10.13-8.56-17.23-.01-5.47,2-6.92,7.15-5.29,13.96,4.4,28.26,7.19,42.83,5.29,9.13-1.19,18.17-3.88,26.89-6.94,4.15-1.46,7.92-4.93,11-8.28,4.2-4.57,5.15-10.23,2.43-16.63-1.75,1.07-3.27,2-4.79,2.94-21.42,13.27-44.65,16.94-69.13,12.15-5.35-1.05-10.59-3.93-15.22-6.98-4.63-3.05-6.83-8.09-6.42-13.89,.2-2.84,1.31-4.54,4.51-3.09,24.73,11.2,49.5,6.43,74.28,.21,.32-.08,.63-.22,.94-.34,12.51-4.94,14.51-11.26,7.22-22.61-31.34,14.25-62.87,14.92-95.1,1.94,.01,9.06-7.13,12.96-14,17.07,.25,.39,.5,.79,.74,1.18,6.19-3.75,12.39-7.49,18.55-11.22,5.27,7.74,2.45,23.09-5.49,27.84-12.72,7.62-27.01,10.05-41.45,11.93-23.25,3.02-44.78-1.05-64.03-15.01-.36-.26-.88-.32-2.5-.87,.55,7.25,.56,14.03,1.83,20.57,.45,2.35,3.58,5.07,6.08,5.97,7.62,2.75,15.4,5.68,23.36,6.76,18.67,2.55,37.25,.99,55.43-4.2,10.93-3.12,20.71-8.25,28.2-17.11,.81-.96,1.94-1.64,2.78-2.33,.71,.36,1.16,.43,1.28,.67,4.57,9.12,.35,25.27-8.76,29.44-24.82,11.34-50.97,15.97-77.85,10.05-9.11-2.01-17.33-8.07-25.93-12.33-1.29-.64-2.44-1.56-3.73-2.4-2.78,11.68,1.91,21.91,12.5,26.04,26.12,10.18,52.65,10.75,79.25,2.04,7.89-2.58,14.91-6.78,18.31-15.09,.18-.44,.57-.82,.94-1.13,.23-.2,.6-.22,1.48-.51,.57,.92,1.56,1.87,1.8,2.99,3.53,16.4,1.78,30.08-14.26,38.58-9.89,5.24-20.38,8.17-31.4,9.32-16.5,1.72-32.98,1.58-49.19-2.31-14.15-3.39-21.7-10.74-22.38-25.15-1.02-21.67-14.12-33.26-31.52-41.79-17.46-8.56-36.14-11.22-55.45-9.63-12.85,1.06-25.66,1.23-38.15-2.65-8.28-2.58-15.7-6.59-20.62-14.07-.93-1.41-1.2-3.24-2.23-6.22,2.09,1.1,2.89,1.24,3.15,1.69,8.07,14.08,21.9,17.03,36.27,18.29,7.25,.63,14.64,.04,21.95-.37,26.82-1.52,51.78,3.55,73.19,20.8,8.98,7.23,14.64,16.22,15.82,28.32,1.96,20.07,7.37,25.87,26.68,28.89,19.72,3.09,39.59,3.47,58.93-2.51,6.27-1.94,12.4-4.97,17.89-8.57,8.79-5.77,12.02-18.04,8.34-28.59-10.44,12.63-25.07,15.79-40.07,17.73-19.8,2.56-39.26,.94-58.03-6.24-13.33-5.1-19.52-16.38-17.11-30.45,.65-3.77,2.4-4.47,5.48-2.39,.14,.09,.29,.17,.41,.28,22.64,19.06,48.75,19.14,75.76,13.63,7.15-1.46,14.28-3.35,21.17-5.77,12.68-4.45,16.45-10.75,15.49-24.34-.31-.06-.77-.26-.9-.14-14.44,14.39-32.89,18.85-52.23,20.94-14.32,1.55-28.61,1.41-42.75-1.81-20.56-4.67-24.31-9.3-23.96-30.35,.05-2.82,1.18-5.61,1.81-8.42,2.48,1.17,5.2,2.01,7.42,3.56,19.19,13.5,40.65,16.13,63.05,12.45,10.6-1.74,21.18-4.52,31.28-8.17,11.27-4.07,13.7-10.29,11.02-22.08-28.68,16.27-59.45,18.64-91.22,12.91-6.04-1.09-12.16-3.87-17.32-7.26-9.84-6.48-9.82-16.74,.47-22.33,7.73-4.21,16.54-7.17,25.23-8.72,19.97-3.55,40.13-3.21,60.17,.25,3.24,.56,6.38,1.7,9.88,2.66-.22-1.4-.57-2.65-.59-3.9-.04-3.35,2-4.73,4.8-3.07,3.43,2.03,5.7,4.82,5.89,9.21,.07,1.66,1.31,3.95,2.71,4.77,8.5,5.01,17.99,6.86,27.67,7.75,17.42,1.61,34.64,.9,51.26-5.26,11.94-4.43,12.39-5.12,13.49-19.14-4.63,.21-9.2,.1-13.68,.67-22.62,2.86-45.18,3.53-67.59-1.55-3.87-.88-7.73-2.17-11.29-3.91-11.09-5.41-16.79-18.72-13.46-30.42,.97-3.4,2.71-3.61,4.94-1.4,17.48,17.4,39.67,19.04,62.32,18.03,9.56-.43,19.11-2.48,28.49-4.58,4.07-.91,8.1-3.27,11.39-5.91,2.7-2.17,5.01-5.48,6.15-8.76,.91-2.62-.19-5.94-.39-8.95-2.36,.91-4.99,1.43-7.05,2.8-11.29,7.54-23.89,10.92-37.21,11.74-17.38,1.08-34.76,.36-51.56-4.45-23.56-6.75-21.2-10.71-19.13-32.88,.11-1.16,.99-2.24,1.53-3.4,.95,.35,1.55,.38,1.84,.7,10.02,10.98,23.25,14.42,37.31,15.67,20.19,1.79,40.04,.43,58.62-8.49,5.01-2.4,9.55-6.02,13.81-9.66,2.23-1.9,3.38-5.06,5.55-8.49-1.7,.15-2.19,.04-2.49,.24-19.1,12.3-40.38,14.78-62.38,13.67-14.2-.72-28.2-2.81-41.42-8.38-3.79-1.6-7.55-3.64-10.78-6.17-7.23-5.68-7.28-12.57,.03-18.33,3.73-2.94,8.05-5.52,12.52-7.07,26.47-9.17,53.32-10.49,79.75-.53,8.31,3.13,15.76,9.12,22.84,14.76,5.83,4.65,6.77,12.08,6.68,19.22-.3,23.41-3.13,46.51-9.47,69.1-.76,2.69-.82,4.97,.13,7.94,.94,2.95-.3,7.19-1.88,10.18-1.44,2.71-1.74,4.63-.51,7.32,5.42,11.9,3.07,19.39-9.36,23.51-25.57,8.49-51.57,11.88-77.69,1.64-.27-.11-.61-.04-1.24-.07-.14,6.06,2.86,10.8,7.9,12.79,7.16,2.83,14.81,5.32,22.42,5.92,20.63,1.62,40.07-2.77,57.49-14.55,5.49-3.72,7.79-2.71,8.88,3.99,1.4,8.64-2.24,15.32-8.9,20.43-10,7.67-21.81,10.52-34.03,11.72-14.43,1.42-28.59-.39-42.46-4.56-1.7-.51-3.44-.92-5.86-1.56-.8,7.77,1.51,14.16,7.38,17.8,5.62,3.49,12.23,6.26,18.73,7.29,15.93,2.54,31.59,.68,46.23-6.68,6-3.02,11.62-6.62,14.23-13.36,.2-.52,.93-.83,2.7-1-.23,2.13-.45,4.26-.72,6.76,9.65-12.2,23.34-15.03,37.35-16.38,18.9-1.82,37.67-.43,55.79,5.65,5.14,1.73,10.2,4.2,14.71,7.21,6.62,4.42,8.33,11.34,3.83,17.87-3.39,4.92-8.06,9.36-13.05,12.69-10.13,6.76-21.83,9.72-33.8,11.42-13.97,1.98-27.93,1.83-41.75-1.18-9.55-2.08-17.93-6.24-23.66-14.68,1.38,6.41,5.5,10.95,10.43,14.8,10.79,8.43,23.51,11.67,36.81,12.55,14.01,.94,27.97,.2,41.63-3.61,9.91-2.77,17.86-8.02,22.71-17.37,.54-1.03,1.21-1.99,1.84-2.97,9.59-14.91,18.16-18.49,35.49-14.91,12.05,2.49,24.06,5.32,36.2,7.29,13.71,2.23,27.24,.77,40.31-4.2,1.23-.47,2.58-.62,3.87-.92,.23,.52,.46,1.05,.69,1.57-1.5,.9-2.9,2.05-4.51,2.66-17.29,6.6-34.96,5.89-52.69,2.36-8.65-1.72-17.18-4.04-25.81-5.89-14.09-3.01-21.44,0-29.56,11.82-.94,1.37-1.94,2.73-2.7,4.2-5.49,10.65-14.41,16.88-25.8,19.62-20.74,4.99-41.52,5.86-62.2-.31-8.4-2.51-16.05-6.57-22.26-12.89-7.2-7.34-10.73-15.92-8.48-26.37,.38-1.75,.24-3.62,.39-6.27Zm51.26-17.58c-7.49-.05-18.88,1.02-29.82,5.13-7.29,2.74-13.27,7.15-16.55,14.33-1.08,2.36-1.47,5.55-.9,8.06,2.83,12.37,12.12,18.47,23.52,20.12,12.26,1.78,24.86,2.31,37.24,1.82,12.35-.49,24.41-3.94,35.08-10.52,4.71-2.9,9.22-6.71,12.58-11.06,4.64-6.01,3.24-11.63-3.18-15.74-3.75-2.39-7.9-4.34-12.11-5.78-13.52-4.63-27.54-6.32-45.87-6.35ZM296.05,40.45c12.79-1.19,22.2-1.37,31.31-3.12,7.72-1.49,15.26-4.41,22.51-7.55,2-.87,3.7-4.8,3.64-7.28-.05-1.77-2.99-4.38-5.13-5.05-27.09-8.46-54.4-8.84-81.7-1.07-4.49,1.28-10.32,2.68-10.49,8.51-.19,6.21,5.5,8.71,10.41,9.88,10.77,2.57,21.76,4.23,29.46,5.67Zm69.04-2.25c-15.22,19.41-35.76,23.95-57.09,25.38-21.33,1.43-42.55,.43-60.7-14.41-.2,2.08-.37,3.38-.45,4.69-.93,16.29,.46,18.99,16.5,22.73,11.27,2.63,22.93,4.07,34.49,4.83,19.95,1.31,39.19-1.26,56.14-13.4,2.16-1.54,5.62-1.26,9.34-2,.52-8.22,1.11-17.41,1.77-27.82Zm-164.24,120.83c.09-.49,.19-.97,.28-1.46,2,0,4,.12,5.99-.02,13.36-.91,26.59-2.58,38.18-10.03,2.7-1.73,5.21-4.28,6.84-7.03,2.3-3.88,.3-6.46-4.16-6.73-4.47-.27-8.94-.76-13.38-1.4-21.77-3.17-43.19-1.87-63.98,5.5-3.61,1.28-6.55,4.47-9.8,6.77,3.16,2.68,5.92,6.72,9.54,7.77,9.97,2.88,20.3,4.5,30.49,6.62Zm48.94-75.92c-.35,1.62-.67,2.54-.74,3.47-.87,12.25,5.52,21.13,18.48,24.96,16,4.73,32.48,5.39,49.01,4.57,11.63-.58,23.23-1.56,34.83-2.54,1.13-.09,2.86-1.19,3.12-2.15,2.23-8.12,4.18-16.31,6.47-25.51-16.82,15.36-36.7,15.58-56.34,15.65-19.99,.07-39.15-3.47-54.83-18.46Zm-4.53,47.54c.14-.39,.29-.79,.43-1.18-2.46-.79-4.87-1.9-7.39-2.31-23.72-3.91-47.44-4.45-70.86,1.69-5.78,1.52-11.44,4.58-16.35,8.07-4.92,3.49-4.82,8.84-.24,12.84,3.18,2.79,7.02,5.16,10.97,6.68,11.69,4.52,24.01,5.14,35.08,5.03-6.3-1.07-14-1.74-21.3-3.83-5.45-1.57-10.8-4.39-15.39-7.74-4.33-3.16-3.78-7.85,.77-10.76,3.6-2.3,7.62-4.15,11.69-5.46,17.02-5.5,34.56-6.97,52.32-5.68,6.78,.49,13.51,1.75,20.26,2.66ZM340.77,11.56c-.85-.63-1.09-.89-1.38-1.02-.9-.42-1.8-.86-2.74-1.17-26.45-8.58-52.75-7.91-78.72,1.83-4.23,1.59-8.06,4.58-11.61,7.5-2.83,2.32-3.48,5.8-.99,8.94,4.41,5.57,10.72,7.88,17.2,9.76-1.34-1.34-2.94-2.22-4.4-3.3-7.6-5.67-7.28-13.32,1.02-17.86,3.6-1.97,7.6-3.47,11.59-4.43,23.03-5.58,46.14-5.17,70.03-.24Zm-58.95,30.69c28.12,3.88,55.64,3.82,80.77-13.74-1.61-2.05-2.93-3.74-4.82-6.16-1.1,7.69-5.81,11.09-11.39,13.27-4.62,1.81-9.45,3.29-14.32,4.21-16.6,3.15-33.35,3.91-50.24,2.42Z"/>
  </g>
</svg>