<?xml version="1.0" encoding="UTF-8"?>
<svg id="Camada_2" data-name="Camada 2" xmlns="http://www.w3.org/2000/svg" viewBox="0 0 565.26 278.78">
  <defs>
    <style>
      .cls-1 {
        fill: #c29863;
      }
    </style>
  </defs>
  <g id="Camada_2-2" data-name="Camada 2">
    <path class="cls-1" d="M180.29,274.8c-3.85-3.2-7.21-6.04-10.62-8.82-10.46-8.53-11.24-13.65-2.65-24.19,13.36-16.41,27.08-32.54,40.61-48.81,9.27-11.15,18.49-22.34,27.75-33.5,2.37-2.86,5.38-3.63,9.07-4.69,8.2-2.35,12.71,2.83,18.43,5.95,.68,.37,1.47,.55,2.77-.12-3.9-2.49-7.82-4.93-11.69-7.47-5.05-3.32-5.01-4.24-.71-8.6,.96-.98,1.77-3,1.44-4.2-1.77-6.37-3.39-12.87-6.06-18.89-6.07-13.72-10.59-27.8-10.25-42.9,.7-30.75,14.54-54.18,41.61-68.66,26.69-14.28,53.55-12.98,79.31,3.11,12.47,7.79,22.76,17.95,29.96,30.91,1.56,2.8,3.43,3.5,6.47,3.24,8.17-.71,15.56-3.5,22.44-7.8,3.53-2.21,7.05-4.44,10.5-6.77,13.47-9.11,27.65-9.87,42.27-3.33,5.91,2.64,11.61,5.81,17.28,8.97,10.52,5.85,21.2,11.21,33.17,13.5,14.81,2.83,27.72-.74,38.63-11.26,.95-.92,1.96-1.79,2.99-2.62,.2-.16,.63-.02,2.25-.02-1.27,1.92-1.98,3.53-3.14,4.66-12.22,11.89-26.95,16.44-43.17,11.53-11.83-3.58-22.94-9.55-34.34-14.54-7.3-3.2-14.35-7.05-21.84-9.71-10.34-3.67-20.37-1.79-29.75,3.74-2.3,1.35-4.59,2.72-6.8,4.21-9.9,6.68-20.1,12.55-33.37,12.41,9.94,25.6,7.74,49.77-6.41,72.57-9.23,14.87-22.01,25.84-38.41,32.2-22.15,8.58-43.62,6.36-64.48-3.39l.07-2.47c3.16,0,6.32-.05,9.48,0,14.57,.26,28.98-.64,42.89-5.5,28.74-10.05,48.33-37.68,47.2-66.77-.13-3.31-.67-6.63-1.3-9.89-2.47-12.69-7.98-21.48-22.15-25.29-23.98-6.44-46.53-6.49-67.46,7.97-28.54,19.72-34.06,59.92-11.83,84.05,3.33,3.61,7.3,6.63,10.73,11.09-1.75-.15-3.77,.21-5.19-.55-4.95-2.65-10.58-4.83-14.36-8.73-21.45-22.16-29.44-48.72-19.37-78.06,9.03-26.29,30.57-40.12,57.13-44.29,26.08-4.1,47.34,6.5,63.26,27.26,3.83,5,8.5,5.46,14.52,6.26-4.71-9.37-11.06-16.31-18.17-22.62-37.35-33.14-93.02-25.15-117.58,17.2-14.3,24.66-12.37,50.06-1.64,75.46,3.02,7.16,5.96,14.35,9.03,21.75,5.58-2.99,11.11-1.64,16.04,2.68,5.08,4.44,5.59,10.31,1.21,15.45-2.35,2.76-4.89,5.63-7.95,7.41-1.62,.94-4.81,.2-6.82-.76-3.63-1.73-6.91-4.19-10.34-6.35-.28,.41-.56,.83-.83,1.24,2.87,2,5.73,4,8.61,5.99,5.92,4.1,6.79,7.52,2.49,13.31-5.76,7.76-11.95,15.19-17.96,22.76-15.44,19.45-30.88,38.89-46.32,58.34-.31,.39-.63,.78-.94,1.17-8.4,10.4-13.33,10.62-22.67,1-5.04-5.19-5.32-8.18-.63-13.87,7-8.49,14.32-16.7,21.3-25.2,14.6-17.76,29.11-35.61,43.57-53.48,2.27-2.81,4.12-5.96,6.16-8.95l-.99-1.31c-1.54,1.02-3.43,1.75-4.56,3.1-22.88,27.35-45.69,54.77-68.48,82.21-1.27,1.53-2.38,3.23-3.36,4.96-3.11,5.48-2.51,9.1,2.31,13.22,5.29,4.52,10.7,8.91,16.15,13.43-2.19,4.36-5.85,4.35-9.19,3.86-8.66-1.28-16.6-3.98-20.44-13.01-.3-.71-.93-1.48-1.61-1.79-10.61-4.72-21.01-10.08-31.96-13.82-9.42-3.21-19.32-1.22-28.36,2.51-10.6,4.37-20.7,9.96-31.24,14.5-8.21,3.54-16.55,7.35-25.22,9.14-14.82,3.06-26.47-3.94-36.23-14.57-.27-.3-.21-.91-.54-2.64,1.98,1.15,3.4,1.63,4.35,2.58,13.5,13.48,29.03,15.29,45.93,7.73,9.11-4.08,17.9-8.88,26.89-13.25,3.89-1.89,7.86-3.63,11.87-5.28,17.02-7.01,33.75-6.68,50.12,2.13,3.23,1.74,6.55,3.3,9.77,5.04,4.31,2.33,8.48,4.32,10.81,9.53,2.55,5.7,12.76,8.94,20.56,7.42ZM369.98,42.23c-12.69-20.33-41-30.96-66.02-25.33-27.15,6.11-49.23,28.97-52.23,54.06-2.95,24.65,10.04,57.29,26.2,65.03-.47-.84-.68-1.45-1.07-1.89-17.79-20.3-16.68-51.5-.62-73.07,16.7-22.42,47.63-32.22,77.24-24.07,5.28,1.45,10.44,3.32,16.5,5.27Zm-122.72,117.78c-.69,.64-1.1,.94-1.41,1.32-14.89,18.77-29.65,37.63-44.69,56.27-8.25,10.23-17,20.06-25.46,30.13-2.04,2.43-4.03,4.94-2.02,8.51,5.29,9.37,12.91,10.19,19.62,2.01,.32-.39,.63-.78,.94-1.17,13.97-17.6,27.93-35.21,41.9-52.8,7.35-9.25,14.75-18.46,22.05-27.76,2.28-2.91,4.01-6.18,.12-9.1-3.56-2.67-7.39-4.98-11.05-7.41ZM378.71,49.07c.75,1.75,1.46,3.4,2.17,5.06,4.29,10.14,6.51,20.67,5.14,31.67-3.9,31.25-26.48,56.13-57.93,63.01-10.72,2.34-21.83,2.89-32.74,4.26,10.48,3.24,21.26,4.81,32.53,3.7,46.82-4.61,79.32-54.4,64.43-98.89-2.92-8.73-3.4-9.05-13.58-8.8Zm-125.6,100.03c5.02,3.12,9.6,5.97,14.68,9.13,1.91-4.53,3.8-8.36,.42-12.12-2.61-2.9-9.96-1.51-15.1,2.99Zm19.89,5.95c3.72-3.16,3.81-6.49,1.37-10.08-3-4.43-8.25-5.96-12.59-3.79,9.84,1.33,10.58,2.21,11.22,13.87Z"/>
  </g>
</svg>