<?xml version="1.0" encoding="UTF-8"?>
<svg id="Camada_1" data-name="Camada 1" xmlns="http://www.w3.org/2000/svg" viewBox="0 0 1394.63 521.15">
  <defs>
    <style>
      .cls-1 {
        fill: #c29863;
      }

      .cls-2 {
        fill: #e6e2df;
      }
    </style>
  </defs>
  <g>
    <path class="cls-2" d="M16.76,402.19l27.17,72.75,27.04-72.75h15.11l-35.42,90.14h-13.46L1.66,402.19h15.11Z"/>
    <path class="cls-2" d="M134.83,402.19h13.46l35.04,90.14h-14.98l-8.81-24.5h-36.05l-8.85,24.5h-15.11l35.29-90.14Zm20.92,55.1l-14.19-39.48-14.26,39.48h28.45Z"/>
    <path class="cls-2" d="M213.55,492.33v-90.14h14.22v77.57h48.37v12.57h-62.59Z"/>
    <path class="cls-2" d="M368.56,479.77v12.57h-61.83v-90.14h60.69v12.57h-46.47v25.65h40.25v11.81h-40.25v27.55h47.61Z"/>
    <path class="cls-2" d="M454.64,492.33v-90.14h8.89v90.14h-8.89Z"/>
    <path class="cls-2" d="M585.03,492.33v-73.38l-32.63,57h-5.59l-32.76-57v73.38h-8.89v-90.14h9.14l35.17,61.7,35.42-61.7h9.01v90.14h-8.89Z"/>
    <path class="cls-2" d="M671.86,492.97c-6.35,0-12.1-1.27-17.27-3.81-5.16-2.54-9.61-5.99-13.33-10.35-3.73-4.36-6.6-9.27-8.63-14.73-2.03-5.46-3.05-11.07-3.05-16.82s1.06-11.74,3.17-17.2c2.12-5.46,5.1-10.33,8.95-14.6,3.85-4.27,8.36-7.66,13.52-10.16,5.16-2.5,10.75-3.75,16.76-3.75,6.35,0,12.1,1.31,17.27,3.94,5.16,2.62,9.58,6.14,13.27,10.54,3.68,4.4,6.54,9.31,8.57,14.73,2.03,5.42,3.05,10.96,3.05,16.63,0,6.01-1.06,11.74-3.17,17.2-2.12,5.46-5.08,10.33-8.89,14.6-3.81,4.28-8.3,7.64-13.46,10.09-5.16,2.46-10.75,3.68-16.76,3.68Zm-33.39-45.71c0,4.91,.8,9.63,2.41,14.16,1.61,4.53,3.89,8.55,6.86,12.06,2.96,3.51,6.49,6.31,10.6,8.38,4.1,2.07,8.61,3.11,13.52,3.11,5.16,0,9.8-1.08,13.9-3.24,4.1-2.16,7.62-5.04,10.54-8.63,2.92-3.6,5.14-7.64,6.67-12.12,1.52-4.49,2.29-9.06,2.29-13.71,0-4.91-.81-9.61-2.41-14.09-1.61-4.49-3.92-8.51-6.92-12.06-3-3.55-6.54-6.35-10.6-8.38-4.06-2.03-8.55-3.05-13.46-3.05s-9.67,1.06-13.78,3.17c-4.11,2.12-7.62,4.97-10.54,8.57-2.92,3.6-5.16,7.64-6.73,12.12-1.57,4.49-2.35,9.06-2.35,13.71Z"/>
    <path class="cls-2" d="M817.74,469.1c0,4.49-1.14,8.49-3.43,12-2.29,3.51-5.35,6.26-9.2,8.25-3.85,1.99-8.06,2.98-12.63,2.98h-42.53v-90.14h43.42c4.23,0,7.89,1.12,10.98,3.36,3.09,2.24,5.46,5.12,7.11,8.63,1.65,3.51,2.48,7.17,2.48,10.98,0,4.49-1.14,8.63-3.43,12.44-2.29,3.81-5.46,6.65-9.52,8.51,5.16,1.52,9.25,4.36,12.25,8.51,3,4.15,4.51,8.97,4.51,14.47Zm-58.91-59.16v33.26h30.98c2.96,0,5.59-.78,7.87-2.35,2.29-1.57,4.1-3.62,5.46-6.16,1.35-2.54,2.03-5.25,2.03-8.12,0-3.05-.63-5.82-1.9-8.32-1.27-2.5-3.01-4.51-5.21-6.03-2.2-1.52-4.7-2.29-7.49-2.29h-31.74Zm50.02,57.64c0-3.05-.68-5.86-2.03-8.44-1.35-2.58-3.2-4.68-5.52-6.29-2.33-1.61-4.97-2.41-7.94-2.41h-34.53v34.15h33.64c3.05,0,5.8-.8,8.25-2.41,2.45-1.61,4.42-3.7,5.9-6.29,1.48-2.58,2.22-5.35,2.22-8.32Z"/>
    <path class="cls-2" d="M853.54,492.33v-90.14h8.89v90.14h-8.89Z"/>
    <path class="cls-2" d="M904.07,492.33v-90.14h8.89v82.27h52.05v7.87h-60.94Z"/>
    <path class="cls-2" d="M997.13,492.33v-90.14h8.89v90.14h-8.89Z"/>
    <path class="cls-2" d="M1075.59,402.19h7.49l37.45,90.14h-9.4l-11.26-28.18h-41.2l-11.27,28.18h-9.52l37.71-90.14Zm21.49,54.97l-17.81-44.56-17.81,44.56h35.62Zm-14.76-67.29l-5.71-2.16,7.49-11.81h9.14l-10.92,13.96Z"/>
    <path class="cls-2" d="M1152.52,492.33v-90.14h38.09c3.89,0,7.45,.81,10.67,2.41,3.22,1.61,6.03,3.79,8.44,6.54,2.41,2.75,4.27,5.8,5.59,9.14,1.31,3.34,1.97,6.75,1.97,10.22,0,4.32-.83,8.38-2.48,12.19s-3.98,7.03-6.98,9.65c-3,2.62-6.54,4.36-10.6,5.21l22.09,34.79h-10.03l-21.2-33.26h-26.66v33.26h-8.89Zm8.89-41.13h29.45c3.55,0,6.64-.97,9.27-2.92,2.62-1.95,4.65-4.51,6.09-7.68,1.44-3.17,2.16-6.54,2.16-10.09s-.83-7-2.48-10.09c-1.65-3.09-3.85-5.59-6.6-7.49-2.75-1.9-5.82-2.86-9.21-2.86h-28.69v41.13Z"/>
    <path class="cls-2" d="M1254.47,492.33v-90.14h8.89v90.14h-8.89Z"/>
    <path class="cls-2" d="M1332.93,402.19h7.49l37.45,90.14h-9.4l-11.26-28.18h-41.2l-11.27,28.18h-9.52l37.71-90.14Zm21.49,54.97l-17.81-44.56-17.81,44.56h35.62Z"/>
  </g>
  <path class="cls-1" d="M1379.53,167.79c-6.1-2.99-12.46-5.44-18.69-8.18-25.09-11.04-50.05-22.37-75.28-33.06-27.52-11.66-55.12-23.17-83-33.92-24.93-9.6-50.09-18.72-75.54-26.84-20.02-6.38-40.57-11.17-61.02-16.14-8.78-2.13-17.85-3.19-26.85-4.3-26.4-3.26-52.87-3.34-79.27-.42-6.37,.71-11.77-.04-17.08-3.21-1.14-.68-2.27-1.43-3.47-1.98-24.51-11.17-49-22.54-75.5-28.24-18.5-3.98-37.1-8.06-55.88-10.14-28.96-3.21-57.77-.62-86.35,5.41-22.38,4.72-44.28,10.98-65.07,20.28-28.47,12.75-56.36,26.8-84.53,40.23-26.08,12.44-52.05,25.13-78.39,37-10.24,4.62-21.19,8.04-32.14,10.62-11.93,2.81-24.19,5.14-36.39,5.61-14.72,.56-30.05,1.17-44.16-2.25-23.32-5.65-45.81-14.68-68.76-21.93-11.85-3.74-23.8-7.44-35.96-9.89-23.74-4.8-47.61-2.82-70.83,2.85-19.95,4.88-39.8,10.94-58.85,18.58-29.13,11.67-57.46,25.32-86.29,37.77-12.79,5.53-25.91,10.31-38.98,15.18-6.99,2.6-14.26,4.46-21.27,7.02l5.99,17.46c3.53-.94,7.15-1.67,10.53-2.99,23.03-9.05,46.12-17.95,68.97-27.44,28.37-11.79,56.38-24.47,84.84-36.05,18.21-7.41,37.42-11.53,56.9-14.51,17.54-2.68,34.26-.69,50.07,7.14,14.63,7.25,26.76,17.95,37.91,29.74,19.72,20.85,37.34,43.74,59.82,61.91,17.87,14.44,37.78,24.76,60.44,29.27,27.93,5.56,55.56,2.32,82.49-5.2,18.81-5.26,36.89-13.12,55.33-19.71,1.57-.56,3.58-.75,5.15-.31,11.52,3.24,22.94,6.84,34.48,10.01,16.82,4.62,33.7,9.04,50.59,13.41,8.86,2.29,17.76,4.48,26.71,6.34,17.58,3.66,35.18,7.2,52.83,10.51,14.55,2.73,29.14,5.35,43.78,7.5,14.98,2.19,30.03,3.95,45.08,5.55,26.46,2.81,52.95,5.36,77.6,7.83,15.95-1.59,29.96-2.27,43.71-4.56,13.69-2.29,26.64-7.27,37.41-16.61,16.41-14.22,20.14-33.42,19.15-53.49-1.07-21.58-4.58-43.02-5.97-64.59-.66-10.16-.11-20.76,2.14-30.65,3.8-16.67,16.49-25.77,31.56-32.12,3.55-1.5,6.66-2.11,10.48-1.18,11.51,2.81,23.17,5,34.66,7.88,14.83,3.71,29.8,7.14,44.28,11.97,25.2,8.42,50.3,17.26,75.03,26.97,29.07,11.42,57.78,23.77,86.5,36.05,27.79,11.88,55.4,24.17,83.09,36.27l7.95-16.48Zm-850.45,36.82c-23,7.1-46.34,11.59-70.64,10.67-26.23-1-49.23-10.03-69.91-25.75-17.03-12.95-30.81-29.15-45.04-44.91-7.13-7.89-14.63-15.45-21.94-23.17-.53-.56-.92-1.24-.85-2.8,75.02,26.25,150.05,52.5,226.67,79.3-6.87,2.52-12.49,4.87-18.29,6.66Zm30.64-22.69c-17.33-5.8-34.75-11.29-52.04-17.2-14.61-5-29.07-10.44-43.62-15.62-6.56-2.33-13.2-4.44-19.77-6.76-2.08-.73-4.05-1.78-6.64-2.94,11.69-2.64,22.77-4.21,33.21-7.7,17.62-5.88,35.33-11.93,52.11-19.79,30.36-14.22,59.9-30.16,90.1-44.73,20.03-9.67,40.34-18.87,61-27.07,22.45-8.9,45.9-15.15,69.84-18.29,21.93-2.87,44.14-4.63,66.24-1.05,18.19,2.95,36.56,5.44,54.37,10,15.22,3.89,29.76,10.4,44.58,15.83,3.07,1.12,6.01,2.59,10.08,4.36-15.88,4.37-30.67,7.61-44.89,12.52-32.02,11.07-63.87,22.66-95.56,34.66-16.76,6.35-33.03,14-49.52,21.06-25.49,10.93-51.04,21.72-76.45,32.83-22.53,9.86-45.1,19.68-67.26,30.33-9.18,4.41-17.2,2.41-25.78-.46Zm439.98-113.19c-10.43,11.18-14.93,25.04-15.1,39.71-.18,15.58,1.12,31.27,3.03,46.75,2.15,17.38,4.95,34.66,2.98,52.2-1.93,17.12-11.95,28.08-27.69,34.01-18.91,7.14-38.71,8.24-58.55,6.85-28.22-1.98-56.41-4.41-84.55-7.37-15.87-1.67-31.61-4.58-47.36-7.26-19.67-3.35-39.36-6.71-58.92-10.66-16.29-3.29-32.46-7.23-48.58-11.3-19.33-4.88-38.56-10.21-57.82-15.37-.77-.21-1.49-.59-2.85-1.15,.93-1.1,1.43-2.22,2.27-2.59,20.36-9.01,40.71-18.03,61.14-26.87,25.46-11.02,50.93-22.02,76.5-32.78,24.21-10.19,48.42-20.37,72.88-29.94,16.86-6.6,33.89-13.01,51.28-17.97,24.11-6.88,48.41-13.59,73.05-18,19.55-3.5,39.73-3.43,59.64-4.91,.96-.07,1.94,.2,4.37,.48-2.47,2.66-4.09,4.41-5.72,6.15Z"/>
</svg>